<svg xmlns="http://www.w3.org/2000/svg" width="151" height="20" viewBox="0 0 151 20" fill="none"><g clip-path="url(#clip0_1550_4633)"><path d="M65.059 17.3596C60.2448 17.3596 56.5977 13.765 56.5977 8.99597C56.5977 4.22695 60.2317 0.632324 65.059 0.632324C67.9228 0.632324 70.5575 1.99052 72.1068 4.26489L72.2717 4.50706L70.0017 5.91486L69.8558 5.68727C68.8039 4.09858 67.0577 3.18679 65.0634 3.18679C61.7781 3.18679 59.2995 5.68436 59.2995 8.99597C59.2995 12.3076 61.7795 14.8052 65.0634 14.8052C67.0577 14.8052 68.8039 13.8948 69.8558 12.3047L70.0017 12.0785L72.2717 13.4849L72.1068 13.7285C70.5575 15.9956 67.9228 17.3596 65.059 17.3596Z" fill="#00D4DA"/><path d="M85.7834 4.36398C84.6251 3.0335 82.8905 2.33325 80.7329 2.33325C76.721 2.33325 73.6953 5.49606 73.6953 9.69174C73.6953 13.8874 76.721 17.0502 80.7329 17.0502C82.8847 17.0502 84.6251 16.35 85.7834 15.0195V16.7293H88.5465V2.6542H85.7834V4.36398ZM81.1603 14.3689C78.5096 14.3689 76.5095 12.3585 76.5095 9.69174C76.5095 7.02495 78.5096 5.01464 81.1603 5.01464C83.8111 5.01464 85.7834 7.02495 85.7834 9.69174C85.7834 12.3585 83.7965 14.3689 81.1603 14.3689Z" fill="#00D4DA"/><path d="M99.4119 2.33325C97.4862 2.33325 95.7968 2.95181 94.7435 4.03866V2.6542H91.9805V16.7293H94.7435V8.86457C94.7435 6.5304 96.2856 5.01464 98.6723 5.01464C100.947 5.01464 102.416 6.50413 102.416 8.80767V16.7264H105.177V8.08992C105.17 4.64701 102.856 2.33325 99.4119 2.33325Z" fill="#00D4DA"/><path d="M113.663 13.1479L109.228 2.65283H106.074L112.257 16.7294H114.989L121.172 2.65283H118.1L113.663 13.1479Z" fill="#00D4DA"/><path d="M133.389 4.36252C132.232 3.0335 130.492 2.33325 128.338 2.33325C124.326 2.33325 121.301 5.49606 121.301 9.69174C121.301 13.8874 124.326 17.0502 128.338 17.0502C130.492 17.0502 132.232 16.3485 133.389 15.0195V16.7293H136.152V2.6542H133.389V4.36252ZM133.389 9.69174C133.389 12.3585 131.402 14.3689 128.766 14.3689C126.13 14.3689 124.116 12.3585 124.116 9.69174C124.116 7.02495 126.115 5.01464 128.766 5.01464C131.417 5.01464 133.389 7.02495 133.389 9.69174Z" fill="#00D4DA"/><path d="M145.138 8.31474C143.388 7.90188 141.868 7.54446 141.868 6.35257C141.868 5.24676 143.236 4.74782 144.591 4.74782C145.939 4.73678 147.238 5.25419 148.209 6.18918L148.402 6.37446L150.007 4.26202L149.845 4.11614C148.848 3.2131 147.123 2.13501 144.558 2.13501C141.786 2.13501 138.975 3.48008 138.975 6.48533C138.975 9.63793 141.858 10.3586 144.174 10.9378C145.829 11.3331 147.391 11.7066 147.391 12.9014C147.391 13.9562 146.215 14.6374 144.394 14.6374C142.743 14.6374 141.305 14.0539 140.231 12.9554L140.041 12.7599L138.428 14.8446L138.574 14.9905C140.095 16.4493 142.17 17.2488 144.409 17.2488C147.929 17.2488 150.294 15.4136 150.294 12.6796C150.312 9.54018 147.443 8.85744 145.138 8.31474Z" fill="#00D4DA"/><path d="M31.7322 2.64111H28.8145V16.7395H31.7322V2.64111Z" fill="#00D4DA"/><path d="M50.4158 2.64111H47.498V16.7395H50.4158V2.64111Z" fill="#00D4DA"/><path d="M17.9717 0.757757C17.5307 0.66963 17.0821 0.625163 16.6325 0.625C14.9546 0.626156 13.3322 1.22626 12.0575 2.31728C11.3949 1.88018 10.6504 1.58237 9.86918 1.44196C9.47715 1.37164 9.07994 1.33407 8.68167 1.32963H8.60143C5.42987 1.32963 2.49172 3.37203 1.28962 6.405C0.163381 9.24977 0.0160378 12.6956 0.840294 16.9409L0.856339 17.027L3.48229 16.5178L3.46624 16.4317C2.73681 12.6518 2.83164 9.77789 3.77844 7.38682C4.56768 5.3911 6.55027 3.99788 8.65832 3.99788C8.90784 4.00046 9.15672 4.02389 9.40234 4.06791C9.74323 4.12988 10.0718 4.24664 10.3754 4.41366C9.83046 5.40712 9.46594 6.48931 9.29876 7.61002C9.07293 9.07081 9.13938 10.5619 9.49425 11.9968C9.66348 12.6781 9.98005 13.6701 10.7591 14.4214C11.338 14.9842 12.1109 15.3032 12.9182 15.3128C13.3566 15.3149 13.7887 15.2081 14.1757 15.0021C15.1036 14.5002 15.6492 13.5184 15.7965 12.0843C15.9926 9.95474 15.6661 7.80944 14.8454 5.83459C14.6037 5.2648 14.3061 4.7204 13.9569 4.20942C14.7297 3.61792 15.6753 3.29655 16.6485 3.29471C16.9164 3.29457 17.1836 3.32047 17.4465 3.37203C19.4889 3.77905 21.1666 5.13142 22.1659 7.17674C23.7254 10.3673 23.4599 14.6534 21.4598 18.6419L21.4204 18.7192L23.8042 19.9155L23.8436 19.8382C26.2157 15.1115 26.4841 9.93982 24.5628 6.00527C23.19 3.19697 20.8486 1.33255 17.9717 0.757757ZM11.9233 8.02288C11.9971 7.5455 12.1173 7.07645 12.2821 6.62238C13.0121 8.24617 13.3067 10.032 13.137 11.8042C13.0699 12.4564 12.9153 12.6358 12.9124 12.6445C12.7959 12.6316 12.6871 12.5802 12.6031 12.4987C12.3857 12.2886 12.2179 11.9239 12.075 11.3491C11.8036 10.2615 11.752 9.13066 11.9233 8.02288Z" fill="#00D4DA"/><path d="M40.7189 2.82775C39.7984 2.97364 38.6094 3.21872 37.5896 3.82853C36.4605 4.50544 35.839 5.10065 35.3138 6.01682C34.6034 7.2729 34.6034 8.59754 34.6107 9.77338V16.7482H37.4146V9.85508C37.4146 8.75656 37.4686 8.04318 37.8129 7.42316C38.5189 6.15395 40.0157 5.77611 41.2426 5.58937C42.0709 5.47858 42.9062 5.42981 43.7417 5.44349H44.8008V2.64247H43.7796C42.7561 2.62438 41.7327 2.68633 40.7189 2.82775Z" fill="#00D4DA"/></g><defs><clipPath id="clip0_1550_4633"><rect width="150" height="19.292" fill="white" transform="translate(0.3125 0.625)"/></clipPath></defs></svg>